<?xml version="1.0" encoding="utf-8"?>
<!-- Generator: Adobe Illustrator 21.0.0, SVG Export Plug-In . SVG Version: 6.00 Build 0)  -->
<svg version="1.1" id="Camada_1" xmlns="http://www.w3.org/2000/svg" xmlns:xlink="http://www.w3.org/1999/xlink" x="0px" y="0px"
	 viewBox="0 0 463.9 101.9" style="enable-background:new 0 0 463.9 101.9;" xml:space="preserve">
<style type="text/css">
	.st0{fill:#5EA0EA;}
	.st1{fill:#FFFFFF;}
</style>
<g>
	<path class="st1" d="M91,49.3c5.5-7,7.8-16.2,5.8-25.5c-0.6-2.8-1.7-5.5-3-8c-4.4-8-12.4-13.9-21.6-15.4C57.2-2,43.6,6.5,38.6,19.5
		c-0.6,1.6-2.2,2.5-3.9,2.3c-1.4-0.2-2.8-0.3-4.2-0.3c-7.1,0-13.6,2.4-18.8,6.5c-2.8,2.2-5.3,4.9-7.2,8c-0.7,1.1-1.3,2.3-1.9,3.6
		c-2,4.4-3,9.4-2.6,14.7C1.3,70.1,15.8,83,31.6,82.5c2.2-0.1,4.4-0.4,6.5-0.9c3.3,9.5,11.2,16.6,20.7,19.3c2.6,0.7,5.3,1.1,8,1.1
		c0.6,0,1.2,0,1.8-0.1c1.5-0.1,3-0.3,4.5-0.6c13.8-2.9,24.2-15.2,24.2-29.8c0-6.7-2.2-13.2-6.3-18.5C90.2,51.9,90.2,50.4,91,49.3
		 M15,34.9c5.4-4.9,13.2-7.3,21.4-5.2c0.8,0.2,1.5,0.5,2.3,0.8c0.1,0,0.1,0.1,0.2,0.1c0.1,0,0.2,0.1,0.3,0.1
		c2.2,0.9,4.6-0.5,4.9-2.9l0-0.1c0.2-1.8,0.7-3.5,1.3-5.2C48.7,13.6,57.2,7.4,67,7.4c5.8,0,10.4,1.6,14.5,5.1
		c0.7,0.6,1.3,1.9,0.4,2.6c-0.5,0.4-1.3,0.6-2.7,0.5c-1,0-1.9,0.1-2.9,0.1c-7.6,0.7-14.2,4.1-18.9,9.3c-1.9,2.1-3.6,4.5-4.9,7.2
		c-2,4.1-3.3,8.8-3.5,13.9c0,0.5,0,1,0,1.5c0,0.4,0,0.8,0,1.1c0,0.1,0,0.2,0,0.2c0,2-1.2,3.9-3.1,4.7c-3.1,1.3-6.4,2-9.8,2
		c-2,0-4-0.3-5.8-0.7c-7.4-1.8-13.5-7-16.6-13.8C12.7,39.1,13.2,36.5,15,34.9 M67.1,90.7c-1.1,2.5-4,3.7-6.6,3
		c-8.1-2.3-14.5-8.9-16.3-17.3c0-0.1,0-0.2-0.1-0.3c-0.5-2.3-2.9-3.6-5-2.7c-3.8,1.6-8,2.1-12.2,1.4c-0.2,0-0.4-0.1-0.7-0.1
		c-8.8-1.6-16.1-8.3-18.2-17c-0.1-0.5-0.2-1-0.3-1.5c-0.5-2.6,2.2-4.4,4.4-3.5c0.4,0.2,0.8,0.4,1.1,0.7c3.6,3.7,8.1,6.6,13.2,8.2
		c3.1,1,6.4,1.5,9.8,1.5c3.1,0,6.1-0.5,9-1.3c2.2-0.6,4.3-1.5,6.3-2.6c0.2-0.1,0.3-0.2,0.5-0.2c1.6-0.7,3.5-0.6,5,0.3
		c3.8,2.2,6.8,5.3,9,9c2.1,3.7,3.3,7.9,3.3,12.4C69.3,84.1,68.5,87.6,67.1,90.7 M81.8,53.9L81.8,53.9C81.8,53.9,81.8,53.9,81.8,53.9
		c5.2,4.5,8.1,10.8,8.1,17.6c0,7-3.2,13.3-8.1,17.6c-2,1.7-5.1,0.2-5.1-2.4l0-1l0-5c0-0.7,0-1.4-0.1-2.1c0-0.2,0-0.4-0.1-0.7
		c0-0.4-0.1-0.9-0.1-1.3c0-0.3-0.1-0.6-0.1-1c-0.4-2.7-1.2-5.4-2.3-7.8c-2.9-6.6-8-12.2-14.6-15.6c-0.9-0.5-2.8-1.3-2.8-1.4
		c-0.1-1-0.2-2.1-0.2-3.2c0-6.1,2.2-11.7,5.9-16c4.5-5.3,11.3-8.7,18.8-8.7c1.5,0,3,0.1,4.4,0.4c2.5,0.5,4.3,2.6,4.6,5.1
		c0.1,0.7,0.1,1.3,0.1,2c0,6.9-3,13.4-8.3,17.8c-0.8,0.7-1.3,1.7-1.3,2.7C80.4,52,80.9,53.1,81.8,53.9"/>
	<path class="st1" d="M121.7,35.5c0-1,0.1-1.8,0.4-2.5c0.3-0.7,0.6-1.3,1-1.7c0.4-0.5,0.9-0.8,1.4-1c0.5-0.2,1.1-0.4,1.7-0.5
		c0.4-0.1,1-0.2,1.5-0.3c0.6-0.1,1.3-0.2,2.2-0.2c0.9-0.1,2-0.1,3.3-0.2c1.3,0,2.8-0.1,4.7-0.1c4.1,0,7.4,0.3,10.1,1
		c2.6,0.7,4.7,1.6,6.3,2.7c1.6,1.2,2.6,2.5,3.3,4.1c0.6,1.6,0.9,3.3,0.9,5.1c0,1.4-0.2,2.6-0.5,3.6c-0.3,1-0.7,2-1.2,2.8
		c-0.5,0.8-1.1,1.5-1.7,2.1c-0.6,0.6-1.2,1-1.8,1.4c0.7,0.3,1.4,0.7,2.2,1.2c0.8,0.5,1.5,1.2,2.2,2c0.7,0.8,1.2,1.8,1.6,2.9
		c0.4,1.2,0.7,2.5,0.7,4c0,2-0.3,3.8-0.9,5.5c-0.6,1.6-1.7,3-3.3,4.2c-1.6,1.2-3.8,2.1-6.7,2.7c-2.8,0.6-6.5,0.9-10.9,0.9
		c-2.2,0-4.2,0-6.2-0.1c-1.9-0.1-3.6-0.1-5.1-0.2c-1.5-0.1-2.7-0.1-3.6-0.2c-0.9-0.1-1.4-0.1-1.6-0.1V35.5z M141.9,47.3
		c1.1,0,2-0.1,2.7-0.4c0.7-0.2,1.3-0.6,1.7-1c0.4-0.4,0.7-0.9,0.9-1.4c0.2-0.5,0.3-1,0.3-1.5c0-0.6-0.1-1.1-0.3-1.7
		c-0.2-0.6-0.6-1.1-1.2-1.5c-0.6-0.4-1.4-0.8-2.5-1c-1.1-0.3-2.5-0.4-4.2-0.4c-1.8,0-3.4,0.1-4.7,0.2c-1.3,0.1-2.1,0.2-2.3,0.2v8.5
		H141.9z M132.4,65.5c0.2,0,0.9,0.1,2.2,0.2c1.2,0.1,3.1,0.2,5.6,0.2c1.7,0,3.1-0.1,4.2-0.3c1.1-0.2,2-0.5,2.6-0.9
		c0.7-0.4,1.1-0.9,1.4-1.4c0.3-0.6,0.4-1.2,0.4-2c0-0.6-0.1-1.1-0.3-1.6c-0.2-0.5-0.5-1-0.9-1.4c-0.5-0.4-1.1-0.7-1.8-1
		c-0.8-0.2-1.8-0.4-3-0.4h-10.4V65.5z"/>
	<path class="st1" d="M176.1,59c0,4.5,2.1,6.8,6.2,6.8c4.1,0,6.2-2.3,6.2-6.8V45.9c0-1.7,0.5-2.9,1.5-3.6c1-0.7,2.3-1,4-1
		c1.2,0,2.2,0.1,3.2,0.4c1,0.3,1.6,0.5,1.8,0.6V61c0,2.4-0.4,4.6-1.3,6.4c-0.9,1.8-2,3.3-3.5,4.5c-1.5,1.2-3.3,2.1-5.3,2.7
		c-2.1,0.6-4.3,0.9-6.6,0.9c-2.4,0-4.6-0.3-6.6-0.9c-2.1-0.6-3.8-1.5-5.3-2.7c-1.5-1.2-2.7-2.7-3.5-4.5c-0.8-1.8-1.3-3.9-1.3-6.4
		V45.9c0-1.7,0.5-2.9,1.5-3.6c1-0.7,2.3-1,4-1c1.2,0,2.2,0.1,3.2,0.4c1,0.3,1.6,0.5,1.8,0.6V59z"/>
	<path class="st1" d="M206.2,53.2c0-2.1,0.4-4,1.1-5.6c0.8-1.6,1.8-2.9,3.1-4c1.3-1.1,2.9-1.9,4.7-2.5c1.8-0.5,3.8-0.8,5.9-0.8
		c2.6,0,5,0.4,7,1.3c2.1,0.9,3.7,2.1,5,3.7c1.3-1.6,2.9-2.8,4.9-3.7c2-0.9,4.3-1.3,6.9-1.3c2.1,0,4,0.3,5.9,0.8
		c1.8,0.5,3.4,1.4,4.7,2.5c1.3,1.1,2.4,2.4,3.1,4c0.8,1.6,1.1,3.5,1.1,5.6v21.4h-10.5V56.2c0-2.2-0.5-3.8-1.4-4.8
		c-0.9-1-2.2-1.4-3.9-1.4c-1.7,0-3.1,0.6-4.2,1.7c-1.1,1.1-1.6,2.9-1.6,5.4v17.5h-10.5V57.1c0-2.5-0.5-4.3-1.6-5.4
		c-1-1.1-2.4-1.7-4.1-1.7c-1.7,0-3,0.5-3.9,1.4c-0.9,1-1.4,2.6-1.4,4.8v18.4h-10.5V53.2z"/>
	<path class="st1" d="M266.2,31c0-1.7,0.5-2.9,1.5-3.6c1-0.7,2.3-1,4-1c1.2,0,2.2,0.1,3.2,0.4c0.9,0.3,1.5,0.5,1.8,0.6v16.6
		c0.8-0.8,2-1.6,3.6-2.4c1.6-0.8,3.6-1.2,6.1-1.2c2.2,0,4.3,0.4,6.3,1.3c2,0.9,3.7,2,5.1,3.6c1.5,1.5,2.6,3.4,3.5,5.5
		c0.8,2.2,1.3,4.6,1.3,7.2c0,2.6-0.5,5-1.4,7.2c-0.9,2.2-2.2,4-3.8,5.6c-1.6,1.5-3.5,2.7-5.7,3.6c-2.2,0.9-4.6,1.3-7.2,1.3
		c-3.1,0-6-0.6-8.6-1.7c-2.6-1.1-4.7-2.8-6.4-5c-1.1-1.4-1.9-3.1-2.4-5.2c-0.6-2.1-0.9-4.5-0.9-7.3V31z M284.2,65.9
		c2.2,0,4-0.7,5.4-2.2c1.4-1.4,2.1-3.3,2.1-5.7c0-2.4-0.7-4.3-2.1-5.8c-1.4-1.5-3.2-2.3-5.4-2.3c-1.1,0-2.1,0.2-3,0.6
		c-0.9,0.4-1.7,1-2.4,1.7c-0.7,0.7-1.2,1.6-1.6,2.6c-0.4,1-0.6,2-0.6,3.2c0,2.4,0.7,4.4,2.1,5.8C280.2,65.2,282,65.9,284.2,65.9"/>
	<path class="st1" d="M318.3,62.3c0.1,0.5,0.3,1,0.7,1.5c0.4,0.5,0.9,1,1.6,1.4c0.7,0.4,1.5,0.8,2.6,1c1,0.3,2.3,0.4,3.8,0.4
		c1.1,0,2.2-0.1,3.2-0.3c1-0.2,1.9-0.4,2.6-0.6c0.7-0.2,1.4-0.4,1.8-0.7c0.5-0.2,0.8-0.4,0.9-0.5l3.7,7.3c-0.3,0.2-0.9,0.5-1.7,0.9
		c-0.8,0.4-1.8,0.8-3,1.2c-1.2,0.4-2.7,0.7-4.3,1c-1.6,0.3-3.4,0.4-5.4,0.4c-2.4,0-4.7-0.4-6.9-1.2c-2.1-0.8-4-1.9-5.6-3.4
		c-1.6-1.5-2.8-3.4-3.8-5.5c-0.9-2.2-1.4-4.7-1.4-7.5c0-2.6,0.5-5,1.4-7.2c0.9-2.2,2.2-4,3.8-5.6c1.6-1.5,3.5-2.7,5.7-3.6
		c2.2-0.9,4.5-1.3,7.1-1.3c2.4,0,4.5,0.3,6.4,1c1.9,0.6,3.5,1.5,4.7,2.6c1.3,1.1,2.3,2.3,2.9,3.7c0.7,1.4,1,2.8,1,4.3
		c0,1.6-0.3,3.1-0.9,4.4c-0.6,1.3-1.6,2.4-3,3.3c-1.5,0.9-3.5,1.6-6,2.1c-2.5,0.5-5.7,0.7-9.6,0.7H318.3z M317.8,55.5
		c2.9,0,5.2-0.1,6.8-0.3c1.6-0.2,2.8-0.5,3.6-0.9c0.8-0.3,1.3-0.7,1.4-1.2c0.2-0.4,0.3-0.9,0.3-1.3c0-0.9-0.4-1.7-1.2-2.4
		c-0.8-0.7-2.1-1-3.7-1c-1.2,0-2.2,0.2-3.1,0.6c-0.9,0.4-1.6,1-2.2,1.6c-0.6,0.7-1,1.4-1.3,2.3C318,53.8,317.9,54.6,317.8,55.5"/>
	<path class="st1" d="M344.9,32.2c0-1.7,0.6-3.1,1.7-4.2c1.1-1.1,2.5-1.7,4.2-1.7c1.7,0,3.1,0.6,4.2,1.7c1.1,1.1,1.7,2.5,1.7,4.2
		c0,1.7-0.6,3-1.7,4.2c-1.1,1.1-2.5,1.7-4.2,1.7c-1.7,0-3-0.6-4.2-1.7C345.5,35.3,344.9,33.9,344.9,32.2 M345.5,45.9
		c0-1.7,0.5-2.9,1.5-3.6c1-0.7,2.3-1,4-1c1.2,0,2.2,0.1,3.2,0.4c1,0.3,1.6,0.5,1.8,0.6v32.4h-10.5V45.9z"/>
	<path class="st1" d="M363.6,53.7c0-2.1,0.4-4,1.1-5.7c0.7-1.7,1.7-3.1,3-4.2c1.3-1.1,2.8-2,4.6-2.6s3.8-0.9,5.9-0.9
		c2.6,0,4.7,0.3,6.1,0.9c1.5,0.6,2.5,1.2,3.2,1.8c0.4,0.4,0.7,0.9,0.9,1.4c0.2,0.5,0.3,1,0.3,1.7s-0.1,1.3-0.3,1.8
		c-0.2,0.6-0.4,1.1-0.7,1.5c-0.3,0.4-0.6,0.8-0.8,1.1c-0.3,0.3-0.5,0.5-0.6,0.7c-0.7-0.3-1.6-0.7-2.7-1c-1-0.3-2.2-0.5-3.5-0.5
		c-1.7,0-3.1,0.5-4.2,1.4c-1.2,1-1.7,2.6-1.7,4.8v18.7h-10.5V53.7z"/>
	<path class="st1" d="M390.3,57.9c0-2.5,0.5-4.9,1.4-7c1-2.1,2.3-4,4-5.6c1.7-1.6,3.6-2.8,5.9-3.7c2.2-0.9,4.6-1.3,7.2-1.3
		c2.5,0,4.9,0.4,7.2,1.3c2.3,0.9,4.2,2.1,5.9,3.7c1.7,1.6,3,3.4,4,5.6c1,2.1,1.4,4.5,1.4,7c0,2.5-0.5,4.9-1.4,7c-1,2.1-2.3,4-4,5.6
		c-1.7,1.6-3.6,2.8-5.9,3.7c-2.2,0.9-4.6,1.3-7.2,1.3c-2.6,0-5-0.4-7.2-1.3c-2.2-0.9-4.2-2.1-5.9-3.7c-1.7-1.6-3-3.4-4-5.6
		C390.8,62.8,390.3,60.5,390.3,57.9 M408.8,66.1c1.1,0,2.1-0.2,3-0.6c0.9-0.4,1.8-1,2.5-1.7c0.7-0.7,1.2-1.6,1.6-2.6
		c0.4-1,0.6-2.1,0.6-3.3c0-1.2-0.2-2.3-0.6-3.3c-0.4-1-0.9-1.9-1.6-2.6c-0.7-0.7-1.5-1.3-2.5-1.7c-0.9-0.4-2-0.6-3-0.6
		c-1.1,0-2.2,0.2-3.1,0.6c-0.9,0.4-1.7,1-2.4,1.7c-0.7,0.7-1.2,1.6-1.6,2.6c-0.4,1-0.6,2.1-0.6,3.3c0,1.2,0.2,2.3,0.6,3.3
		c0.4,1,0.9,1.9,1.6,2.6c0.7,0.7,1.5,1.3,2.4,1.7C406.7,65.9,407.7,66.1,408.8,66.1"/>
	<path class="st1" d="M434.5,64.4c0.3,0.3,0.9,0.6,1.7,1c0.8,0.4,1.8,0.7,2.9,1c1.1,0.3,2.4,0.6,3.8,0.9c1.4,0.2,2.9,0.4,4.5,0.4
		c1.8,0,3.1-0.2,4.1-0.5c0.9-0.3,1.4-0.9,1.4-1.7c0-0.9-0.4-1.5-1.1-1.8c-0.8-0.3-2-0.6-3.6-0.8l-3.4-0.4c-1.7-0.2-3.3-0.5-4.9-0.9
		c-1.6-0.4-3-1-4.2-1.8c-1.2-0.8-2.2-1.8-2.9-3.1c-0.7-1.3-1-2.9-1-4.8c0-1.6,0.3-3.1,0.9-4.5c0.6-1.4,1.5-2.6,2.8-3.6
		c1.3-1,2.9-1.8,4.8-2.4c2-0.6,4.3-0.9,7-0.9c2.8,0,5.1,0.2,7.1,0.5c2,0.3,3.7,0.9,5.1,1.6c0.8,0.4,1.5,1,2,1.6
		c0.5,0.6,0.8,1.4,0.8,2.3c0,0.7-0.1,1.3-0.4,1.9c-0.3,0.5-0.6,1-1,1.4c-0.4,0.4-0.7,0.7-1,0.9c-0.3,0.2-0.5,0.4-0.6,0.4
		c-0.1-0.1-0.5-0.4-1.1-0.7c-0.6-0.3-1.4-0.7-2.4-1c-1-0.3-2.2-0.6-3.5-0.9c-1.4-0.3-2.9-0.4-4.7-0.4c-2,0-3.3,0.2-4.1,0.7
		c-0.8,0.5-1.1,1.1-1.1,1.8c0,0.7,0.3,1.3,1.1,1.6c0.7,0.3,1.7,0.6,3.1,0.8l6,0.9c1.5,0.2,2.9,0.5,4.3,0.9c1.4,0.4,2.6,1,3.7,1.8
		c1.1,0.8,1.9,1.8,2.6,3c0.6,1.2,1,2.7,1,4.5c0,3.7-1.4,6.5-4.2,8.6c-2.8,2.1-6.7,3.1-11.6,3.1c-2.6,0-4.9-0.2-6.8-0.5
		c-2-0.4-3.7-0.8-5.1-1.2c-1.4-0.5-2.6-0.9-3.5-1.4c-0.9-0.5-1.5-0.9-1.9-1.1L434.5,64.4z"/>
</g>
</svg>
