<?xml version="1.0" encoding="UTF-8"?>
<svg width="521px" height="401px" viewBox="0 0 521 401" version="1.1" xmlns="http://www.w3.org/2000/svg" xmlns:xlink="http://www.w3.org/1999/xlink">
    <!-- Generator: Sketch 63.1 (92452) - https://sketch.com -->
    <title>Group</title>
    <desc>Created with Sketch.</desc>
    <g id="Page-1" stroke="none" stroke-width="1" fill="none" fill-rule="evenodd">
        <g id="YouBank-ControlPanel" fill-rule="nonzero">
            <g id="Group" transform="translate(-54.000000, -105.000000)">
                <path d="M575,274.442958 C575,352.365715 529.325717,421.301886 459.308648,463.26598 C414.416438,490.176463 359.511233,506 300.227651,506 C221.250615,506 161.006377,476.145316 115.689261,430.411661 C73.9191839,388.268944 44.8346971,332.63095 25.4553026,274.442958 C-61.0591915,14.6449987 83.4641669,-56.231388 300.227651,42.8859158 C438.241935,106.001421 575,146.561193 575,274.442958 Z" id="Path" fill="#F9F9F9"></path>
                <g id="undraw_active_options_8je6" transform="translate(141.000000, 205.000000)">
                    <path d="M48.2764604,179.531816 L43.5883212,172.049862 C45.1030294,168.163438 46.8384703,164.364488 48.786376,160.671112 L51.8643395,163.229298 L49.463989,159.398522 C51.9185308,154.855186 53.8352404,152 53.8352404,152 C53.8352404,152 63.2315285,167.296566 66.1477146,183.352353 L59.7454551,192.706617 L66.7309649,187.359765 C66.9378264,189.227446 67.0255459,191.106129 66.9936039,192.984688 C66.6076469,211.923769 60.0321682,227.152429 52.3068444,226.998849 C44.5815206,226.845268 38.6318078,211.367614 39.0177649,192.428533 C39.1374168,186.557234 40.6074422,180.441296 42.57838,174.796001 L48.2764604,179.531816 Z" id="Path" fill="#E6E6E6"></path>
                    <path d="M27.5042317,187.494375 L19.7264862,183.469579 C19.0032454,179.355659 18.510266,175.203803 18.2498967,171.033793 L22.1478164,171.654367 L18.1655931,169.59367 C17.8943106,164.434116 18.0380464,161 18.0380464,161 C18.0380464,161 33.7810881,169.325079 44.4724221,181.62157 L43.898506,192.935368 L47.0194707,184.764759 C48.1519892,186.262942 49.1901076,187.831605 50.1276774,189.461456 C59.526324,205.925867 61.8226888,222.373886 55.256734,226.199147 C48.6907791,230.024408 35.7489291,219.778346 26.3502825,203.313935 C23.4366095,198.209812 21.5312854,192.20385 20.2882081,186.345544 L27.5042317,187.494375 Z" id="Path" fill="#E6E6E6"></path>
                    <path d="M67,248.752794 C58.0735179,249.325296 48.347188,248.719498 38,248.752794 L38,225 C47.1175974,226.423133 56.8406863,226.276982 67,225 L67,248.752794 Z" id="Path" fill="#E6E6E6"></path>
                    <polygon id="Path" fill="#E6E6E6" points="279 138.616828 183.405169 154 183 61.1212884 278.594831 0"></polygon>
                    <polygon id="Path" fill="#FFFFFF" points="271 125.122379 188 143 188 64.9880077 271 20"></polygon>
                    <polygon id="Path" fill="#3F3D56" points="262 54.0515088 192 85 192 74.1412677 262 40"></polygon>
                    <polygon id="Path" fill="#000000" points="262 83.1402742 192 108 192 97.0729405 262 69"></polygon>
                    <path d="M219.242525,69.1914285 C219.268253,69.0820108 219.360423,69.0038467 219.468093,69.0001375 C219.575764,68.9964283 219.672652,69.0680794 219.705207,69.1754893 L220.744096,72.600132 L221.98869,76.7028682 C222.026396,76.8271398 221.967048,76.9609443 221.851982,77.0110855 L219.446795,78.0593517 L217.332963,78.9806347 C217.249181,79.0171649 217.152872,79.0012319 217.083958,78.9394404 C217.015045,78.8776489 216.985275,78.7805323 217.006989,78.6883488 L218.163187,73.7766329 L219.242525,69.1914285 Z" id="Path" fill="#E6E6E6"></path>
                    <path d="M215.084114,96.3342849 C215.127527,96.1432014 215.282906,96.0067168 215.4644,96.0002401 C215.645895,95.9937635 215.809222,96.118875 215.864142,96.3064495 L216.753764,99.3448599 L217.980939,103.536158 C218.044492,103.753227 217.944442,103.986939 217.750463,104.074536 L215.428491,105.123051 L213.561324,105.966195 C213.420079,106.029978 213.257729,106.002138 213.141556,105.894213 C213.025383,105.786289 212.975186,105.616671 213.011769,105.455657 L214.117205,100.590126 L215.084114,96.3342849 Z" id="Path" fill="#E6E6E6"></path>
                    <polygon id="Path" fill="#F2F2F2" points="262 111.934848 192 130 192 118.458251 262 97"></polygon>
                    <path d="M261,61.4771385 C261,63.9161433 259.866806,66.3412029 258.48008,66.8892809 C257.105504,67.4325635 256,65.9235613 256,63.5231305 C256,61.1226997 257.105504,58.708955 258.48008,58.1272845 C259.866806,57.5404746 261,59.0381457 261,61.4771385 Z" id="Path" fill="#3F3D56"></path>
                    <path d="M259,62.1590239 C259,62.9677317 258.550427,63.7748575 257.99733,63.9613031 C257.445861,64.1471972 257,63.6453999 257,62.8410033 C257,62.0366067 257.445861,61.2307408 257.99733,61.0405476 C258.550427,60.8497907 259,61.3503201 259,62.1590239 Z" id="Path" fill="#FFFFFF"></path>
                    <path d="M261,90.4771387 C261,92.9161423 259.866806,95.3412006 258.48008,95.8892824 C257.105504,96.4325607 256,94.9235592 256,92.5231297 C256,90.1227001 257.105504,87.7089566 258.48008,87.1272905 C259.866806,86.5404647 261,88.0381351 261,90.4771387 Z" id="Path" fill="#000000"></path>
                    <path d="M259,91.1590272 C259,91.9677347 258.550427,92.7748602 257.99733,92.9613016 C257.445861,93.1471997 257,92.6454026 257,91.8410063 C257,91.0366101 257.445861,90.2307445 257.99733,90.0405473 C258.550427,89.8497906 259,90.3503237 259,91.1590272 Z" id="Path" fill="#FFFFFF"></path>
                    <path d="M261,118.477137 C261,120.916142 259.866806,123.3412 258.48008,123.889282 C257.105504,124.432561 256,122.923559 256,120.523129 C256,118.122699 257.105504,115.708955 258.48008,115.127284 C259.866806,114.540475 261,116.038145 261,118.477137 Z" id="Path" fill="#F2F2F2"></path>
                    <path d="M259,119.159024 C259,119.967732 258.550427,120.774862 257.99733,120.961303 C257.445861,121.147197 257,120.6454 257,119.841003 C257,119.036607 257.445861,118.230741 257.99733,118.040548 C258.550427,117.849791 259,118.35032 259,119.159024 Z" id="Path" fill="#FFFFFF"></path>
                    <path d="M222.084113,119.334287 C222.127526,119.143203 222.282903,119.006718 222.464398,119.00024 C222.645893,118.993763 222.80922,119.118873 222.864141,119.306448 L223.753763,122.344862 L224.980938,126.53616 C225.044493,126.753229 224.944442,126.98694 224.750462,127.074534 L222.42849,128.123054 L220.561324,128.966198 C220.420078,129.029978 220.257728,129.002136 220.141556,128.894211 C220.025384,128.786286 219.975187,128.61667 220.011768,128.455655 L221.117205,123.590125 L222.084113,119.334287 Z" id="Path" fill="#E6E6E6"></path>
                    <path d="M205.305317,114 L208.976854,110.624344 C208.976854,110.624344 217.287581,104.918631 214.384674,101.781851 C211.481767,98.6450713 205.630849,105.959742 205.630849,105.959742 L202,108.330366 L205.305317,114 Z" id="Path" fill="#A0616A"></path>
                    <path d="M155.446246,115.697132 L153.246641,118.759346 C153.246641,118.759346 150.172777,130.716539 165.72829,131.351521 C165.72829,131.351521 185.59473,141.093139 190.512487,134.989876 C195.430243,128.886613 209,114.205842 209,114.205842 L201.01759,106 L184.750623,123.197335 L168.969541,115.198482 C168.969541,115.198482 160.840669,110.664003 155.446246,115.697132 Z" id="Path" fill="#2F2E41"></path>
                    <polygon id="Path" fill="#E6E6E6" points="145.401908 172 125 247.483644 127.570123 248 149 172"></polygon>
                    <polygon id="Path" fill="#E6E6E6" points="170.598494 172 191 247.483644 188.429877 248 167 172"></polygon>
                    <polygon id="Path" fill="#E6E6E6" points="156 170.041626 159.211337 247.866135 162 248 158.412744 169"></polygon>
                    <path d="M166,168.948671 C166,170.947261 160.535807,173.09266 153.364,173.782014 C145.66662,174.521887 139,173.320945 139,171.049043 C139,168.777141 145.66662,166.538982 153.364,166.08127 C160.535799,165.654818 166,166.950081 166,168.948671 Z" id="Path" fill="#E6E6E6"></path>
                    <path d="M173.58004,156 L178.740119,159.627271 C178.740119,159.627271 200.928479,175.69091 198.864435,181.909102 C196.800391,188.127294 185.448225,213 185.448225,213 L171,208.336361 L187.512257,181.90909 L178.740119,173.61818 L174.096047,162.21818 L173.58004,156 Z" id="Path" fill="#2F2E41"></path>
                    <path d="M153.188052,146.897447 C153.188052,146.897447 142.730244,163.01446 149.004929,167.693583 C155.279613,172.372705 173.057894,190.569356 173.057894,190.569356 L176.718127,198.887814 L189.79039,241 L206,232.681542 L191.359061,199.927608 C191.359061,199.927608 189.79039,187.96981 184.561486,181.211079 C179.332583,174.452347 177.241017,164.574166 177.241017,164.574166 L178.809709,159.895032 L169.447199,145 L153.188052,146.897447 Z" id="Path" fill="#2F2E41"></path>
                    <path d="M181,210.828502 L171.623283,208.01422 C171.623283,208.01422 161.497815,207.602933 162.019487,211.204224 C162.541159,214.805516 170.888255,238.471186 173.496715,236.927774 C176.105174,235.384361 174.018407,228.181766 174.018407,228.181766 L181,210.828502 Z" id="Path" fill="#2F2E41"></path>
                    <polygon id="Path" fill="#A0616A" points="160.217179 96 155 101.648594 163.347649 115 167 104.729719"></polygon>
                    <path d="M165.317524,116.413364 L156.219963,101 L153.024425,101.740241 L153.024425,106.980643 L152,151 L168.903014,148.379801 C168.903014,148.379801 169.927435,120.08163 165.317524,116.413364 Z" id="Path" fill="#000000"></path>
                    <path d="M160.913052,115.970042 L153.086964,102 L146.304358,105.104456 L134.304341,153.740887 L127,167.710925 C127,167.710925 151,179.611344 156.739128,167.710925 C162.478257,155.810505 163,129.422671 163,129.422671 L160.913052,115.970042 Z" id="Path" fill="#2F2E41"></path>
                    <path d="M149.687524,106.250437 L146.6023,104.163076 C146.6023,104.163076 134.775588,101.55387 134.775588,117.209086 C134.775588,117.209086 126.034116,137.560861 132.204564,142.257427 C138.375012,146.953993 153.286936,160 153.286936,160 L161,151.650556 L143.517056,135.99534 L150.715916,119.818288 C150.715916,119.818288 154.82956,111.468839 149.687524,106.250437 Z" id="Path" fill="#2F2E41"></path>
                    <path d="M153,156.590272 L156.709778,160.180544 C156.709778,160.180544 163.069401,168.386885 166.24921,165.309509 C169.42902,162.232132 161.479517,156.590272 161.479517,156.590272 L158.829675,153 L153,156.590272 Z" id="Path" fill="#A0616A"></path>
                    <path d="M164.733483,112 L173.445868,133.698637 C173.445868,133.698637 177,144.528611 177,148.654313 L177,160 L167.353067,147.107175 C167.353067,147.107175 162.1139,113.508454 164.733483,112 Z" id="Path" fill="#2F2E41"></path>
                    <path d="M192.924774,236.343863 C192.924774,236.343863 190.388014,246.511613 193.717435,247.372396 C197.046856,248.233178 224.982344,248.961388 225,244.155466 C225.017631,239.349543 206.869634,235.379167 206.869634,235.379167 L200.164988,231 L192.924774,236.343863 Z" id="Path" fill="#2F2E41"></path>
                    <circle id="Oval" fill="#A0616A" cx="166.5" cy="96.5" r="9.5"></circle>
                    <path d="M177.186743,94.9716251 C177.186743,94.9716251 179.016572,87.0337449 177.186743,85.2019251 L177.186743,86.4231396 C177.186743,86.4231396 175.966853,82.1488949 173.527077,83.3701094 C173.527077,83.3701094 170.477358,80.9276885 169.867407,82.1488949 C166.278543,78.9007045 150.365027,81.9459176 158.08987,99 C158.08987,99 159.498368,93.7504106 159.498368,95.5822303 C159.498368,95.5822303 163.158034,91.9185949 163.767977,90.6973803 C164.37792,89.4761658 174.746967,97.4140501 177.186743,94.9716251 Z" id="Path" fill="#2F2E41"></path>
                    <rect id="Rectangle" fill="#3F3D56" x="0" y="248" width="360" height="1"></rect>
                </g>
            </g>
        </g>
    </g>
</svg>