<?xml version="1.0" encoding="utf-8"?>
<!-- Generator: Adobe Illustrator 21.0.0, SVG Export Plug-In . SVG Version: 6.00 Build 0)  -->
<svg version="1.1" id="Camada_1" xmlns="http://www.w3.org/2000/svg" xmlns:xlink="http://www.w3.org/1999/xlink" x="0px" y="0px"
	 viewBox="0 0 342.2 151.1" style="enable-background:new 0 0 342.2 151.1;" xml:space="preserve">
<style type="text/css">
	.st0{fill:#5EA0EA;}
	.st1{fill:#FFFFFF;}
</style>
<g>
	<g>
		<path d="M0,111.1c0-1,0.1-1.8,0.4-2.5c0.3-0.7,0.6-1.3,1-1.7c0.4-0.5,0.9-0.8,1.4-1c0.5-0.2,1.1-0.4,1.7-0.5
			c0.4-0.1,1-0.2,1.5-0.3c0.6-0.1,1.3-0.2,2.2-0.2c0.9-0.1,2-0.1,3.3-0.2c1.3,0,2.8-0.1,4.7-0.1c4.1,0,7.4,0.3,10.1,1
			c2.6,0.7,4.7,1.6,6.3,2.7c1.6,1.2,2.6,2.5,3.3,4.1c0.6,1.6,0.9,3.3,0.9,5.1c0,1.4-0.2,2.6-0.5,3.6c-0.3,1-0.7,2-1.2,2.8
			c-0.5,0.8-1.1,1.5-1.7,2.1c-0.6,0.6-1.2,1-1.8,1.4c0.7,0.3,1.4,0.7,2.2,1.2c0.8,0.5,1.5,1.2,2.2,2c0.7,0.8,1.2,1.8,1.6,2.9
			c0.4,1.2,0.7,2.5,0.7,4c0,2-0.3,3.8-0.9,5.5c-0.6,1.6-1.7,3-3.3,4.2c-1.6,1.2-3.8,2.1-6.7,2.7c-2.8,0.6-6.5,0.9-10.9,0.9
			c-2.2,0-4.2,0-6.2-0.1c-1.9-0.1-3.6-0.1-5.1-0.2c-1.5-0.1-2.7-0.1-3.6-0.2c-0.9-0.1-1.4-0.1-1.6-0.1V111.1z M20.2,122.9
			c1.1,0,2-0.1,2.7-0.4c0.7-0.2,1.3-0.6,1.7-1c0.4-0.4,0.7-0.9,0.9-1.4c0.2-0.5,0.3-1,0.3-1.5c0-0.6-0.1-1.1-0.3-1.7
			c-0.2-0.6-0.6-1.1-1.2-1.5c-0.6-0.4-1.4-0.8-2.5-1c-1.1-0.3-2.5-0.4-4.2-0.4c-1.8,0-3.4,0.1-4.7,0.2c-1.3,0.1-2.1,0.2-2.3,0.2v8.5
			H20.2z M10.7,141c0.2,0,0.9,0.1,2.2,0.2c1.2,0.1,3.1,0.2,5.6,0.2c1.7,0,3.1-0.1,4.2-0.3c1.1-0.2,2-0.5,2.6-0.9
			c0.7-0.4,1.1-0.9,1.4-1.4c0.3-0.6,0.4-1.2,0.4-2c0-0.6-0.1-1.1-0.3-1.6c-0.2-0.5-0.5-1-0.9-1.4c-0.5-0.4-1.1-0.7-1.8-1
			c-0.8-0.2-1.8-0.4-3-0.4H10.7V141z"/>
		<path d="M54.4,134.6c0,4.5,2.1,6.8,6.2,6.8c4.1,0,6.2-2.3,6.2-6.8v-13.2c0-1.7,0.5-2.9,1.5-3.6c1-0.7,2.3-1,4-1
			c1.2,0,2.2,0.1,3.2,0.4c1,0.3,1.6,0.5,1.8,0.6v18.8c0,2.4-0.4,4.6-1.3,6.4c-0.9,1.8-2,3.3-3.5,4.5c-1.5,1.2-3.3,2.1-5.3,2.7
			c-2.1,0.6-4.3,0.9-6.6,0.9c-2.4,0-4.6-0.3-6.6-0.9c-2.1-0.6-3.8-1.5-5.3-2.7c-1.5-1.2-2.7-2.7-3.5-4.5c-0.8-1.8-1.3-3.9-1.3-6.4
			v-15.1c0-1.7,0.5-2.9,1.5-3.6c1-0.7,2.3-1,4-1c1.2,0,2.2,0.1,3.2,0.4c1,0.3,1.6,0.5,1.8,0.6V134.6z"/>
		<path d="M84.5,128.8c0-2.1,0.4-4,1.1-5.6c0.8-1.6,1.8-2.9,3.1-4c1.3-1.1,2.9-1.9,4.7-2.5c1.8-0.5,3.8-0.8,5.9-0.8
			c2.6,0,5,0.4,7,1.3c2.1,0.9,3.7,2.1,5,3.7c1.3-1.6,2.9-2.8,4.9-3.7c2-0.9,4.3-1.3,6.9-1.3c2.1,0,4,0.3,5.9,0.8
			c1.8,0.5,3.4,1.4,4.7,2.5c1.3,1.1,2.4,2.4,3.1,4c0.8,1.6,1.1,3.5,1.1,5.6v21.4h-10.5v-18.4c0-2.2-0.5-3.8-1.4-4.8
			c-0.9-1-2.2-1.4-3.9-1.4c-1.7,0-3.1,0.6-4.2,1.7c-1.1,1.1-1.6,2.9-1.6,5.4v17.5H106v-17.5c0-2.5-0.5-4.3-1.6-5.4
			c-1-1.1-2.4-1.7-4.1-1.7c-1.7,0-3,0.5-3.9,1.4c-0.9,1-1.4,2.6-1.4,4.8v18.4H84.5V128.8z"/>
		<path d="M144.5,106.6c0-1.7,0.5-2.9,1.5-3.6c1-0.7,2.3-1,4-1c1.2,0,2.2,0.1,3.2,0.4c0.9,0.3,1.5,0.5,1.8,0.6v16.6
			c0.8-0.8,2-1.6,3.6-2.4c1.6-0.8,3.6-1.2,6.1-1.2c2.2,0,4.3,0.4,6.3,1.3c2,0.9,3.7,2,5.1,3.6c1.5,1.5,2.6,3.4,3.5,5.5
			c0.8,2.2,1.3,4.6,1.3,7.2c0,2.6-0.5,5-1.4,7.2c-0.9,2.2-2.2,4-3.8,5.6c-1.6,1.5-3.5,2.7-5.7,3.6c-2.2,0.9-4.6,1.3-7.2,1.3
			c-3.1,0-6-0.6-8.6-1.7c-2.6-1.1-4.7-2.8-6.4-5c-1.1-1.4-1.9-3.1-2.4-5.2c-0.6-2.1-0.9-4.5-0.9-7.3V106.6z M162.5,141.4
			c2.2,0,4-0.7,5.4-2.2c1.4-1.4,2.1-3.3,2.1-5.7c0-2.4-0.7-4.3-2.1-5.8c-1.4-1.5-3.2-2.3-5.4-2.3c-1.1,0-2.1,0.2-3,0.6
			c-0.9,0.4-1.7,1-2.4,1.7c-0.7,0.7-1.2,1.6-1.6,2.6c-0.4,1-0.6,2-0.6,3.2c0,2.4,0.7,4.4,2.1,5.8
			C158.5,140.7,160.3,141.4,162.5,141.4"/>
		<path d="M196.6,137.9c0.1,0.5,0.3,1,0.7,1.5c0.4,0.5,0.9,1,1.6,1.4c0.7,0.4,1.5,0.8,2.6,1c1,0.3,2.3,0.4,3.8,0.4
			c1.1,0,2.2-0.1,3.2-0.3c1-0.2,1.9-0.4,2.6-0.6c0.7-0.2,1.4-0.4,1.8-0.7c0.5-0.2,0.8-0.4,0.9-0.5l3.7,7.3c-0.3,0.2-0.9,0.5-1.7,0.9
			c-0.8,0.4-1.8,0.8-3,1.2c-1.2,0.4-2.7,0.7-4.3,1c-1.6,0.3-3.4,0.4-5.4,0.4c-2.4,0-4.7-0.4-6.9-1.2c-2.1-0.8-4-1.9-5.6-3.4
			c-1.6-1.5-2.8-3.4-3.8-5.5c-0.9-2.2-1.4-4.7-1.4-7.5c0-2.6,0.5-5,1.4-7.2c0.9-2.2,2.2-4,3.8-5.6c1.6-1.5,3.5-2.7,5.7-3.6
			c2.2-0.9,4.5-1.3,7.1-1.3c2.4,0,4.5,0.3,6.4,1c1.9,0.6,3.5,1.5,4.7,2.6c1.3,1.1,2.3,2.3,2.9,3.7c0.7,1.4,1,2.8,1,4.3
			c0,1.6-0.3,3.1-0.9,4.4c-0.6,1.3-1.6,2.4-3,3.3c-1.5,0.9-3.5,1.6-6,2.1c-2.5,0.5-5.7,0.7-9.6,0.7H196.6z M196.1,131.1
			c2.9,0,5.2-0.1,6.8-0.3c1.6-0.2,2.8-0.5,3.6-0.9c0.8-0.3,1.3-0.7,1.4-1.2c0.2-0.4,0.3-0.9,0.3-1.3c0-0.9-0.4-1.7-1.2-2.4
			c-0.8-0.7-2.1-1-3.7-1c-1.2,0-2.2,0.2-3.1,0.6c-0.9,0.4-1.6,1-2.2,1.6c-0.6,0.7-1,1.4-1.3,2.3
			C196.3,129.3,196.1,130.2,196.1,131.1"/>
		<path d="M223.2,107.8c0-1.7,0.6-3.1,1.7-4.2c1.1-1.1,2.5-1.7,4.2-1.7c1.7,0,3.1,0.6,4.2,1.7c1.1,1.1,1.7,2.5,1.7,4.2
			c0,1.7-0.6,3-1.7,4.2c-1.1,1.1-2.5,1.7-4.2,1.7c-1.7,0-3-0.6-4.2-1.7C223.8,110.8,223.2,109.5,223.2,107.8 M223.8,121.4
			c0-1.7,0.5-2.9,1.5-3.6c1-0.7,2.3-1,4-1c1.2,0,2.2,0.1,3.2,0.4c1,0.3,1.6,0.5,1.8,0.6v32.4h-10.5V121.4z"/>
		<path d="M241.9,129.2c0-2.1,0.4-4,1.1-5.7c0.7-1.7,1.7-3.1,3-4.2c1.3-1.1,2.8-2,4.6-2.6s3.8-0.9,5.9-0.9c2.6,0,4.7,0.3,6.1,0.9
			c1.5,0.6,2.5,1.2,3.2,1.8c0.4,0.4,0.7,0.9,0.9,1.4c0.2,0.5,0.3,1,0.3,1.7s-0.1,1.3-0.3,1.8c-0.2,0.6-0.4,1.1-0.7,1.5
			c-0.3,0.4-0.6,0.8-0.8,1.1c-0.3,0.3-0.5,0.5-0.6,0.7c-0.7-0.3-1.6-0.7-2.7-1c-1-0.3-2.2-0.5-3.5-0.5c-1.7,0-3.1,0.5-4.2,1.4
			c-1.2,1-1.7,2.6-1.7,4.8v18.7h-10.5V129.2z"/>
		<path d="M268.6,133.5c0-2.5,0.5-4.9,1.4-7c1-2.1,2.3-4,4-5.6c1.7-1.6,3.6-2.8,5.9-3.7c2.2-0.9,4.6-1.3,7.2-1.3
			c2.5,0,4.9,0.4,7.2,1.3c2.3,0.9,4.2,2.1,5.9,3.7c1.7,1.6,3,3.4,4,5.6c1,2.1,1.4,4.5,1.4,7c0,2.5-0.5,4.9-1.4,7c-1,2.1-2.3,4-4,5.6
			c-1.7,1.6-3.6,2.8-5.9,3.7c-2.2,0.9-4.6,1.3-7.2,1.3c-2.6,0-5-0.4-7.2-1.3c-2.2-0.9-4.2-2.1-5.9-3.7c-1.7-1.6-3-3.4-4-5.6
			C269.1,138.4,268.6,136,268.6,133.5 M287.1,141.7c1.1,0,2.1-0.2,3-0.6c0.9-0.4,1.8-1,2.5-1.7c0.7-0.7,1.2-1.6,1.6-2.6
			c0.4-1,0.6-2.1,0.6-3.3c0-1.2-0.2-2.3-0.6-3.3c-0.4-1-0.9-1.9-1.6-2.6c-0.7-0.7-1.5-1.3-2.5-1.7c-0.9-0.4-2-0.6-3-0.6
			c-1.1,0-2.2,0.2-3.1,0.6c-0.9,0.4-1.7,1-2.4,1.7c-0.7,0.7-1.2,1.6-1.6,2.6c-0.4,1-0.6,2.1-0.6,3.3c0,1.2,0.2,2.3,0.6,3.3
			c0.4,1,0.9,1.9,1.6,2.6c0.7,0.7,1.5,1.3,2.4,1.7C284.9,141.5,286,141.7,287.1,141.7"/>
		<path d="M312.8,140c0.3,0.3,0.9,0.6,1.7,1c0.8,0.4,1.8,0.7,2.9,1c1.1,0.3,2.4,0.6,3.8,0.9c1.4,0.2,2.9,0.4,4.5,0.4
			c1.8,0,3.1-0.2,4.1-0.5c0.9-0.3,1.4-0.9,1.4-1.7c0-0.9-0.4-1.5-1.1-1.8c-0.8-0.3-2-0.6-3.6-0.8l-3.4-0.4c-1.7-0.2-3.3-0.5-4.9-0.9
			c-1.6-0.4-3-1-4.2-1.8c-1.2-0.8-2.2-1.8-2.9-3.1c-0.7-1.3-1-2.9-1-4.8c0-1.6,0.3-3.1,0.9-4.5c0.6-1.4,1.5-2.6,2.8-3.6
			c1.3-1,2.9-1.8,4.8-2.4c2-0.6,4.3-0.9,7-0.9c2.8,0,5.1,0.2,7.1,0.5c2,0.3,3.7,0.9,5.1,1.6c0.8,0.4,1.5,1,2,1.6
			c0.5,0.6,0.8,1.4,0.8,2.3c0,0.7-0.1,1.3-0.4,1.9c-0.3,0.5-0.6,1-1,1.4c-0.4,0.4-0.7,0.7-1,0.9c-0.3,0.2-0.5,0.4-0.6,0.4
			c-0.1-0.1-0.5-0.4-1.1-0.7c-0.6-0.3-1.4-0.7-2.4-1c-1-0.3-2.2-0.6-3.5-0.9c-1.4-0.3-2.9-0.4-4.7-0.4c-2,0-3.3,0.2-4.1,0.7
			c-0.8,0.5-1.1,1.1-1.1,1.8c0,0.7,0.3,1.3,1.1,1.6c0.7,0.3,1.7,0.6,3.1,0.8l6,0.9c1.5,0.2,2.9,0.5,4.3,0.9c1.4,0.4,2.6,1,3.7,1.8
			c1.1,0.8,1.9,1.8,2.6,3c0.6,1.2,1,2.7,1,4.5c0,3.7-1.4,6.5-4.2,8.6c-2.8,2.1-6.7,3.1-11.6,3.1c-2.6,0-4.9-0.2-6.8-0.5
			c-2-0.4-3.7-0.8-5.1-1.2c-1.4-0.5-2.6-0.9-3.5-1.4c-0.9-0.5-1.5-0.9-1.9-1.1L312.8,140z"/>
	</g>
	<path d="M213.4,49.3c5.5-7,7.8-16.2,5.8-25.5c-0.6-2.8-1.7-5.5-3-8c-4.4-8-12.4-13.9-21.6-15.4C179.6-2,165.9,6.5,161,19.5
		c-0.6,1.6-2.2,2.5-3.9,2.3c-1.4-0.2-2.8-0.3-4.2-0.3c-7.1,0-13.6,2.4-18.8,6.5c-2.8,2.2-5.3,4.9-7.2,8c-0.7,1.1-1.3,2.3-1.9,3.6
		c-2,4.4-3,9.4-2.6,14.7c1.2,15.7,15.7,28.7,31.5,28.1c2.2-0.1,4.4-0.4,6.5-0.9c3.3,9.5,11.2,16.6,20.7,19.3c2.6,0.7,5.3,1.1,8,1.1
		c0.6,0,1.2,0,1.8-0.1c1.5-0.1,3-0.3,4.5-0.6c13.8-2.9,24.2-15.2,24.2-29.8c0-6.7-2.2-13.2-6.3-18.5
		C212.5,51.9,212.5,50.4,213.4,49.3 M137.4,34.9c5.4-4.9,13.2-7.3,21.4-5.2c0.8,0.2,1.5,0.5,2.3,0.8c0.1,0,0.1,0.1,0.2,0.1
		c0.1,0,0.2,0.1,0.3,0.1c2.2,0.9,4.6-0.5,4.9-2.9l0-0.1c0.2-1.8,0.7-3.5,1.3-5.2c3.3-8.9,11.8-15.1,21.6-15.1
		c5.8,0,10.4,1.6,14.5,5.1c0.7,0.6,1.3,1.9,0.4,2.6c-0.5,0.4-1.3,0.6-2.7,0.5c-1,0-1.9,0.1-2.9,0.1c-7.6,0.7-14.2,4.1-18.9,9.3
		c-1.9,2.1-3.6,4.5-4.9,7.2c-2,4.1-3.3,8.8-3.5,13.9c0,0.5,0,1,0,1.5c0,0.4,0,0.8,0,1.1c0,0.1,0,0.2,0,0.2c0,2-1.2,3.9-3.1,4.7
		c-3.1,1.3-6.4,2-9.8,2c-2,0-4-0.3-5.8-0.7c-7.4-1.8-13.5-7-16.6-13.8C135.1,39.1,135.6,36.5,137.4,34.9 M189.5,90.7
		c-1.1,2.5-4,3.7-6.6,3c-8.1-2.3-14.5-8.9-16.3-17.3c0-0.1,0-0.2-0.1-0.3c-0.5-2.3-2.9-3.6-5-2.7c-3.8,1.6-8,2.1-12.2,1.4
		c-0.2,0-0.4-0.1-0.7-0.1c-8.8-1.6-16.1-8.3-18.2-17c-0.1-0.5-0.2-1-0.3-1.5c-0.5-2.6,2.2-4.4,4.4-3.5c0.4,0.2,0.8,0.4,1.1,0.7
		c3.6,3.7,8.1,6.6,13.2,8.2c3.1,1,6.4,1.5,9.8,1.5c3.1,0,6.1-0.5,9-1.3c2.2-0.6,4.3-1.5,6.3-2.6c0.2-0.1,0.3-0.2,0.5-0.2
		c1.6-0.7,3.5-0.6,5,0.3c3.8,2.2,6.8,5.3,9,9c2.1,3.7,3.3,7.9,3.3,12.4C191.6,84.1,190.9,87.6,189.5,90.7 M204.1,53.9L204.1,53.9
		C204.1,53.9,204.2,53.9,204.1,53.9c5.2,4.5,8.1,10.8,8.1,17.6c0,7-3.2,13.3-8.1,17.6c-2,1.7-5.1,0.2-5.1-2.4l0-1l0-5
		c0-0.7,0-1.4-0.1-2.1c0-0.2,0-0.4-0.1-0.7c0-0.4-0.1-0.9-0.1-1.3c0-0.3-0.1-0.6-0.1-1c-0.4-2.7-1.2-5.4-2.3-7.8
		c-2.9-6.6-8-12.2-14.6-15.6c-0.9-0.5-2.8-1.3-2.8-1.4c-0.1-1-0.2-2.1-0.2-3.2c0-6.1,2.2-11.7,5.9-16c4.5-5.3,11.3-8.7,18.8-8.7
		c1.5,0,3,0.1,4.4,0.4c2.5,0.5,4.3,2.6,4.6,5.1c0.1,0.7,0.1,1.3,0.1,2c0,6.9-3,13.4-8.3,17.8c-0.8,0.7-1.3,1.7-1.3,2.7
		C202.8,52,203.2,53.1,204.1,53.9"/>
</g>
</svg>
